<svg width="512" height="512" xmlns="http://www.w3.org/2000/svg">

 <g>
  <title>background</title>
  <rect fill="none" id="canvas_background" height="402" width="582" y="-1" x="-1"/>
 </g>
 <g>
  <title>Layer 1</title>
  <path id="svg_2" fill="#000000" d="m276.3,217.1c6.8,-8.4 11.8,-16.3 18.4,-23c12.4,-12.7 26.8,-21.7 43.6,-27.4c18.6,-6.3 37.8,-7.2 56.8,-5.3c30.8,2.9 57.7,14.9 78.6,38.4c9.8,11 17.1,23.6 22.4,37.3c4.1,10.7 7.3,21.5 9.2,32.8c1.6,9.7 3.6,19.4 3.6,29.3c0.1,68.5 0.1,137 0.2,205.5c0,3.4 -0.8,4.5 -4.3,4.5c-31.3,-0.1 -62.7,-0.2 -94,0c-4.5,0 -5.1,-1.6 -5.1,-5.5c0.1,-59.8 0.1,-119.7 0.1,-179.5c0,-11 -0.7,-22.1 -3.9,-32.5c-5.4,-17.6 -16.3,-30.4 -34.2,-36.9c-15,-5.4 -30.2,-6.4 -45.5,-2.5c-16.9,4.3 -28.8,15.4 -37.2,30.4c-4.7,8.4 -6.6,17.2 -7.6,26.8c-0.7,7.3 -0.9,14.5 -0.9,21.8c-0.1,57.3 -0.1,114.7 0.1,172c0,4.9 -1.3,6 -6,5.9c-30.3,-0.2 -60.7,-0.3 -91,0c-5.4,0.1 -6.1,-1.7 -6.1,-6.4c0.2,-105.7 0.2,-211.3 0.2,-317c0,-12.5 -0.1,-12.5 12.4,-12.5c28.5,0 57,0.1 85.5,-0.1c4,0 5,1.2 4.9,5.1c-0.3,12.4 -0.2,24.8 -0.2,38.8z"/>
  <path id="svg_3" fill="#191919" d="m5.3,342.5c0,-53.7 0.1,-107.3 -0.1,-161c0,-4.5 1.1,-6 5.8,-6c30.8,0.2 61.7,0.2 92.5,0c4.6,0 5.7,1.5 5.7,6c-0.1,107.1 -0.1,214.3 0,321.4c0,4.7 -1,6.2 -6,6.1c-30.8,-0.2 -61.7,-0.2 -92.5,0c-4.4,0 -5.5,-1.2 -5.5,-5.6c0.2,-53.6 0.1,-107.2 0.1,-160.9z"/>
  <path id="svg_4" fill="#000000" d="m55.9,4.7c33.3,-1.1 52.9,23.5 53,52.6c0,29.9 -21.1,52.1 -53.6,52.2c-31.5,0.1 -52.6,-21.7 -52.8,-52.6c-0.2,-29.3 21.2,-53.2 53.4,-52.2z"/>
 </g>
</svg>